<?xml version="1.0" encoding="UTF-8" standalone="no"?>
<!DOCTYPE svg PUBLIC "-//W3C//DTD SVG 1.1//EN" "http://www.w3.org/Graphics/SVG/1.1/DTD/svg11.dtd">
<svg width="100%" height="100%" viewBox="0 0 517 100" version="1.1" xmlns="http://www.w3.org/2000/svg" xmlns:xlink="http://www.w3.org/1999/xlink" xml:space="preserve" xmlns:serif="http://www.serif.com/" style="fill-rule:evenodd;clip-rule:evenodd;stroke-linejoin:round;stroke-miterlimit:2;">
    <g transform="matrix(1,0,0,1,-870.464,-949.926)">
        <g transform="matrix(1,0,0,1,201.291,-474.36)">
            <path d="M853.873,1443.89C851.673,1443.89 849.806,1443.12 848.273,1441.59C846.739,1440.05 845.973,1438.19 845.973,1435.99C845.973,1433.79 846.739,1431.9 848.273,1430.34C849.806,1428.77 851.673,1427.99 853.873,1427.99C856.073,1427.99 857.956,1428.77 859.523,1430.34C861.089,1431.9 861.873,1433.79 861.873,1435.99C861.873,1438.19 861.089,1440.05 859.523,1441.59C857.956,1443.12 856.073,1443.89 853.873,1443.89ZM847.073,1499.89C843.873,1499.89 841.289,1498.89 839.323,1496.89C837.356,1494.89 836.373,1491.89 836.373,1487.89C836.373,1486.22 836.639,1484.05 837.173,1481.39L843.973,1449.29L858.373,1449.29L851.173,1483.29C850.906,1484.29 850.773,1485.35 850.773,1486.49C850.773,1487.82 851.089,1488.77 851.723,1489.34C852.356,1489.9 853.406,1490.19 854.873,1490.19C856.073,1490.19 857.139,1489.99 858.073,1489.59C857.806,1492.92 856.623,1495.47 854.523,1497.24C852.423,1499 849.939,1499.89 847.073,1499.89Z" style="fill:rgb(114,164,17);"/>
            <path d="M1163.67,1499.89C1158.81,1499.89 1155.01,1498.6 1152.27,1496.04C1149.54,1493.47 1148.17,1489.45 1148.17,1483.99C1148.17,1479.39 1149.07,1474.32 1150.87,1468.79C1152.67,1463.25 1155.61,1458.47 1159.67,1454.44C1163.74,1450.4 1168.91,1448.39 1175.17,1448.39C1182.51,1448.39 1186.17,1451.59 1186.17,1457.99C1186.17,1461.72 1185.11,1465.15 1182.97,1468.29C1180.84,1471.42 1178.01,1473.94 1174.47,1475.84C1170.94,1477.74 1167.17,1478.82 1163.17,1479.09C1163.04,1480.55 1162.97,1481.55 1162.97,1482.09C1162.97,1487.62 1165.04,1490.39 1169.17,1490.39C1171.04,1490.39 1173.04,1489.89 1175.17,1488.89C1177.31,1487.89 1179.24,1486.62 1180.97,1485.09C1179.17,1494.95 1173.41,1499.89 1163.67,1499.89ZM1163.87,1474.29C1166.41,1474.22 1168.79,1473.39 1171.02,1471.79C1173.26,1470.19 1175.06,1468.14 1176.42,1465.64C1177.79,1463.14 1178.47,1460.52 1178.47,1457.79C1178.47,1455.05 1177.64,1453.69 1175.97,1453.69C1173.64,1453.69 1171.32,1455.8 1169.02,1460.04C1166.72,1464.27 1165.01,1469.02 1163.87,1474.29Z" style="fill:rgb(114,164,17);"/>
            <text x="667.573px" y="1499.29px" style="font-family:'Lobster-Regular', 'Lobster';font-size:100px;fill:rgb(114,164,17);">Qua<tspan x="858.073px " y="1499.29px "> </tspan>Antiqu</text>
        </g>
    </g>
</svg>
